HIERARCHY
ROOT Hips
{
	OFFSET	0.000000	0.000000	0.000000
	CHANNELS 6 Xposition Yposition Zposition Zrotation Xrotation Yrotation
	JOINT LeftHip
	{
		OFFSET	4.740440	-3.195970	-0.322709
		CHANNELS 3 Zrotation Xrotation Yrotation
		JOINT LeftKnee
		{
			OFFSET	-1.605680	-15.592300	1.005510
			CHANNELS 3 Zrotation Xrotation Yrotation
			JOINT LeftAnkle
			{
				OFFSET	-0.632401	-16.421000	-1.413730
				CHANNELS 3 Zrotation Xrotation Yrotation
				End Site
				{
					OFFSET	0.008423	-2.933000	-1.684880
				}
			}
		}
	}
	JOINT RightHip
	{
		OFFSET	-4.740440	-3.195970	-0.322709
		CHANNELS 3 Zrotation Xrotation Yrotation
		JOINT RightKnee
		{
			OFFSET	1.605680	-15.592300	1.005510
			CHANNELS 3 Zrotation Xrotation Yrotation
			JOINT RightAnkle
			{
				OFFSET	0.632401	-16.421000	-1.413730
				CHANNELS 3 Zrotation Xrotation Yrotation
				End Site
				{
					OFFSET	-0.008423	-2.933000	-1.684880
				}
			}
		}
	}
	JOINT Chest
	{
		OFFSET	0.000000	3.468200	0.078401
		CHANNELS 3 Zrotation Xrotation Yrotation
		JOINT LeftCollar
		{
			OFFSET	3.857650	15.070700	-0.011583
			CHANNELS 3 Zrotation Xrotation Yrotation
			JOINT LeftShoulder
			{
				OFFSET	3.979720	-1.940530	-0.165223
				CHANNELS 3 Zrotation Xrotation Yrotation
				JOINT LeftElbow
				{
					OFFSET	0.615844	-10.986600	-0.673886
					CHANNELS 3 Zrotation Xrotation Yrotation
					JOINT LeftWrist
					{
						OFFSET	0.826843	-10.854500	1.034220
						CHANNELS 3 Zrotation Xrotation Yrotation
						End Site
						{
							OFFSET	-1.679080	-8.456540	0.936217
						}
					}
				}
			}
		}
		JOINT RightCollar
		{
			OFFSET	-3.857650	15.070700	-0.011583
			CHANNELS 3 Zrotation Xrotation Yrotation
			JOINT RightShoulder
			{
				OFFSET	-3.979720	-1.940530	-0.165223
				CHANNELS 3 Zrotation Xrotation Yrotation
				JOINT RightElbow
				{
					OFFSET	-0.615845	-10.986600	-0.673886
					CHANNELS 3 Zrotation Xrotation Yrotation
					JOINT RightWrist
					{
						OFFSET	-0.826843	-10.854500	1.034220
						CHANNELS 3 Zrotation Xrotation Yrotation
						End Site
						{
							OFFSET	1.679080	-8.456540	0.936217
						}
					}
				}
			}
		}
		JOINT Neck
		{
			OFFSET	0.000000	15.101400	0.055730
			CHANNELS 3 Zrotation Xrotation Yrotation
			JOINT Head
			{
				OFFSET	0.000000	4.185120	1.488260
				CHANNELS 3 Zrotation Xrotation Yrotation
				End Site
				{
					OFFSET	0.000000	7.773420	-0.106016
				}
			}
		}
	}
}
MOTION
Frames:    7
Frame Time: 0.016667
-18.478752	37.434883	98.529671	1.369695	-4.982572	19.437254	13.043483	-15.768767	-1.864187	-0.433059	11.214700	-3.256983	-11.063040	-1.437707	6.191536	5.417055	-3.334382	-1.967309	2.430114	7.297086	4.878357	-8.242562	0.873511	-2.002118	3.680878	20.257706	1.267862	3.772310	5.984265	6.347287	5.808472	7.694167	4.492220	-14.916686	-27.388542	-18.508366	12.244826	3.305956	-16.087479	1.982964	6.066500	9.674854	-10.522370	-6.311060	0.500534	-1.626816	-16.002972	8.310186	-16.000622	-0.214206	21.311897	6.563530	23.453211	-4.464473	1.850019	28.935219	14.516850	
-18.499189	37.427914	98.538124	1.368163	-4.997278	19.355524	13.049484	-15.740144	-1.952295	-0.426292	11.260819	-3.225007	-11.141020	-1.628603	6.291949	5.542516	-3.336878	-1.845596	2.324973	7.309634	4.982915	-8.382520	0.912002	-2.133281	3.750542	20.303150	1.088515	3.774470	5.953366	6.444295	5.810980	7.758425	4.519233	-14.954991	-27.353172	-18.570166	12.195445	3.283789	-16.091663	2.043415	6.059417	9.635868	-10.576941	-6.381819	0.539773	-1.630617	-15.894561	8.303820	-16.071854	-0.204735	21.295918	7.040715	23.539206	-4.920597	1.227820	28.859482	14.879217	
-18.494093	37.421665	98.544846	1.312471	-4.931293	19.147278	13.117120	-15.641325	-2.031509	-0.316926	11.089276	-2.887671	-11.135110	-2.163815	6.301788	5.667180	-3.422849	-1.571049	2.245319	7.288407	5.128673	-8.724995	1.034573	-2.324501	3.771970	20.299009	1.073123	3.914999	5.824210	6.195066	5.949059	7.961239	4.582912	-15.110517	-27.299206	-19.017487	12.087530	3.288036	-15.984363	2.115066	6.015806	9.602674	-10.443040	-6.422004	0.137498	-1.648590	-15.815351	8.207069	-16.345694	-0.224655	21.200092	7.278824	23.548622	-5.104374	1.413756	28.894747	14.671832	
-18.491756	37.422104	98.524727	1.279372	-4.873296	19.082275	13.157841	-15.586167	-1.980601	-0.269641	10.865744	-2.825038	-11.086166	-2.231762	6.337811	5.713070	-3.500430	-1.444046	2.196877	7.214908	5.262736	-8.793250	1.152263	-2.497630	3.788651	20.265726	1.008703	3.952646	5.778777	6.151629	5.997333	8.028765	4.600150	-15.169773	-27.330059	-19.330147	12.051342	3.334759	-15.806395	2.249002	6.028184	9.503533	-10.506999	-6.455809	0.144455	-1.663011	-15.824863	8.166491	-16.445353	-0.244647	21.158051	7.452930	23.584759	-5.345618	1.266372	28.859247	14.809896	
-18.493896	37.420326	98.516220	1.207917	-4.646337	18.948545	13.235926	-15.397577	-1.833115	-0.308262	10.383428	-2.753000	-10.536470	-2.936438	6.542639	5.800517	-3.742588	-1.254870	2.073507	7.115235	5.328787	-8.910788	1.347831	-2.516411	3.857054	20.146503	0.833694	4.007953	5.642789	5.940453	6.170893	8.026783	4.571063	-15.309625	-27.305792	-19.221582	12.029392	3.252004	-16.160635	2.267115	5.984802	9.609220	-10.396038	-6.423681	-0.203162	-1.737734	-15.959457	8.071548	-16.669512	-0.388758	21.024569	7.436526	23.560900	-5.394385	1.575647	28.905897	14.615853	
-18.496023	37.427784	98.493484	1.196564	-4.551685	18.931795	13.242338	-15.344423	-1.776418	-0.276933	10.173411	-2.664427	-10.345485	-3.151627	6.505269	5.821301	-3.788754	-1.204452	1.981920	6.920023	5.375791	-8.858294	1.510845	-2.575978	3.899183	20.109833	0.781781	3.990156	5.588877	5.839851	6.227799	7.988991	4.553370	-15.298973	-27.403177	-19.419643	11.934167	3.357091	-16.004677	2.310079	6.021938	9.439067	-10.461015	-6.472208	-0.141663	-1.728571	-16.057413	8.046090	-16.720676	-0.416323	20.984514	7.493406	23.536625	-5.534534	1.562599	28.909033	14.633250	
-18.515038	37.432335	98.484543	1.142237	-4.248022	18.841537	12.913056	-15.152818	-1.686344	0.043691	9.630552	-2.651633	-9.566404	-3.856108	6.662982	5.919261	-4.052767	-1.024699	1.788596	6.708790	5.452867	-8.873848	1.716543	-2.674150	3.957262	20.039404	0.623194	3.969408	5.395507	5.615706	6.398626	7.836636	4.501926	-15.393918	-27.503794	-19.209204	11.954525	3.277715	-16.260984	2.239899	5.937195	9.467909	-10.438310	-6.405312	-0.289336	-1.730254	-16.449499	8.072435	-16.788305	-0.461288	20.891426	7.611695	23.430635	-5.793429	1.577861	28.944672	14.641969	
